<?xml version="1.0" encoding="utf-8"?>
<!-- Generator: Adobe Illustrator 23.0.0, SVG Export Plug-In . SVG Version: 6.00 Build 0)  -->
<svg version="1.1" id="Calque_1" xmlns="http://www.w3.org/2000/svg" xmlns:xlink="http://www.w3.org/1999/xlink" x="0px" y="0px"
	 viewBox="0 0 1280 1024" style="enable-background:new 0 0 1280 1024;" xml:space="preserve">
<style type="text/css">
	.st0{font-family:'ArialMT';}
	.st1{font-size:12px;}
	.st2{font-size:8.6415px;}
	.st3{font-size:11.2679px;}
	.st4{font-size:13.1415px;}
	.st5{fill:none;stroke:#BFFAFF;stroke-miterlimit:10;}
</style>
<image style="overflow:visible;enable-background:new    ;" width="2048" height="2045" xlink:href="21520C0D.jpeg"  transform="matrix(0.2361 0 0 0.24 222 242.9987)">
</image>
<text transform="matrix(1 0 0 1 238 297.9987)" class="st0 st1">    if (preg_match</text>
<text transform="matrix(1.3887 0 0 1 249.0005 307.7741)" class="st0 st2">(&quot;#^(?:(?:25[0-5]</text>
<text transform="matrix(1.065 0 0 1 254 318.2917)" class="st0 st3">|2[0-4][0-9]|[01]?</text>
<text transform="matrix(1.3887 0 0 1 536.0005 258.7741)" class="st0 st2">if (isset($_POST</text>
<text transform="matrix(1 0 0 1 541 269.9987)" class="st0 st1">&apos;valider&apos;])&amp;&amp;</text>
<text transform="matrix(0.8992 0 0 1 542 286.0949)" class="st0 st4">isset($_POST</text>
<text transform="matrix(1 0 0 1 543 301.7741)" class="st0 st1">[&apos;IMRAN&apos;])){</text>
<text transform="matrix(1 0 0 1 378 302.7741)" class="st0 st1">0010110111011</text>
<text transform="matrix(1 0 0 1 380 314.9987)" class="st0 st1">100101101111</text>
<rect x="511" y="556" width="194.5" height="29"/>
<rect x="511" y="571.5" width="17" height="4.5"/>
<rect x="628" y="585" width="2.3" height="2.3"/>
<text transform="matrix(1 0 0 1 562 573.9987)" class="st0 st1">RESTONS CHEZ NOUS</text>
<text transform="matrix(1 0 0 1 562 573.9987)" class="st5 st0 st1">RESTONS CHEZ NOUS</text>
</svg>
